<?xml version="1.0" encoding="utf-8"?>
<!-- Generator: Adobe Illustrator 24.2.1, SVG Export Plug-In . SVG Version: 6.00 Build 0)  -->
<svg version="1.1" id="Layer_1" xmlns="http://www.w3.org/2000/svg" xmlns:xlink="http://www.w3.org/1999/xlink" x="0px" y="0px"
	 viewBox="0 0 68 27.5" style="enable-background:new 0 0 68 27.5;" xml:space="preserve">
<style type="text/css">
	.st0{fill:none;}
	.st1{fill:#FFFFFF;}
	.st2{fill:#EC1C24;}
</style>
<path class="st0" d="M40.2,3.8c0-0.6-0.4-1-0.9-1.1c-0.2-0.1-0.5,0-0.8-0.1c-1.6,0-3.3,0.1-4.9,0.1h-0.1c0,1.5,0,3.4,0,4.9h0.1
	c1.6,0,3.2,0.1,4.8,0.1c0.2,0,0.3,0,0.5,0c0.7-0.1,1.2-0.5,1.2-1.3c0-0.6,0-1.2,0-1.8C40.2,4.3,40.2,4.1,40.2,3.8z"/>
<path class="st0" d="M47.6,2.7c-1.4,0-3,0-4.6,0c0.1,0.3,0.1,0.5,0.2,0.8c0,0.3,0.1,0.5,0.1,0.8c0,0.7,0,1.4,0,2
	C43.2,7.2,43,8,42.4,8.6c-0.5,0.6-1.2,1-1.9,1.2l-0.1,0.1h7.2C47.6,7.3,47.6,5,47.6,2.7z"/>
<path class="st1" d="M35.2,10L35.2,10L35.2,10c0.4,0,0.8,0.1,1.2,0.1V10l0,0l0,0H35.2L35.2,10z"/>
<path class="st1" d="M20.5,10c3,0,6.1,0,9.1,0c-0.1,0-0.1,0-0.2,0s-0.2,0-0.2,0H20.5L20.5,10z"/>
<path class="st1" d="M30.1,9.8h-0.2C29.9,9.8,30,9.8,30.1,9.8z"/>
<path class="st1" d="M29.9,9.8c-0.1,0-0.2,0-0.2,0H29.9L29.9,9.8z"/>
<path d="M10,4.2c-1.2,0-2.1,0-3.3,0c0,1.2,0,2,0,2.9c1.2,0,2.1,0,3.3,0C10,6.2,10,5.4,10,4.2z"/>
<path d="M64.7,0.1c-0.3,0.7-0.6,1.1-0.8,1.6c-1,1.8-1.9,3.7-2.9,5.5c0,0,0,0.1-0.1,0.1c0,0,0-0.1-0.1-0.1c-1.3-2.4-2.6-4.8-4-7.1V0
	C48,0,39.1,0,30.2,0v1.1v2.7v2.9v1.4v1.8H30c-0.1,0-0.1,0-0.2,0h-0.3c-0.1,0-0.2,0-0.2,0V9V6.7V4V3V0.7V0.2V0.1h-1.9l0,0
	c-0.4,0-0.8,0-1.2,0h-0.1v0.6v2.2l0,0c0,1.4,0,2.7,0,4.1v0.1c-0.3,0-0.4-0.1-0.6-0.2c-0.3-0.2-0.5-0.5-0.6-0.8
	c-0.6-1.2-1.2-2.3-1.8-3.5C22.6,1.7,22,1,21,0.5c-0.6-0.3-1.2-0.4-1.8-0.4C18.8,0.1,18.4,0,18,0h-0.1c-0.6,0-1.2,0-1.8,0
	c0,1.5,0,2.8,0,4.1c0,1.8,0,3.7,0,5.5c0,0,0,0,0,0.1l0,0c0,0-0.2,0-0.3,0c-5.3,0-10.5,0-15.8,0c-0.1,0-0.1,0-0.3,0
	c0,0.8,0,1.7,0,2.5c0,0,0.1-0.1,0.2-0.1c3.1,0,6.2,0,9.2,0c0.1,0,0.2,0,0.2,0c0,0.6,0,1.3,0,2H9.1c-1.5,0-3,0-4.4,0
	c-0.9,0-1.7,0.1-2.5,0.5c-1.6,0.8-1.5,3-0.2,3.9c0.6,0.4,1.3,0.6,2.1,0.7c1.1,0.1,2.2,0.1,3.3,0.1c0.9,0,1.8-0.1,2.6,0.1
	c0.2,0,0.5,0.1,0.7,0.2c0.3,0.2,0.5,0.4,0.5,0.8c0,0.7-0.4,1.1-1,1.3S9,22,8.5,22c-1,0-1.9,0-2.9-0.1c-0.7,0-1.4-0.3-1.9-0.7
	c-0.2-0.2-0.4-0.3-0.6-0.5c0,0-0.1-0.1-0.2,0C2,21.1,1.1,21.6,0.2,22c0.2,0.4,0.5,0.7,0.9,1c0.9,0.6,1.6,0.7,2.3,0.8
	c0.5,0,0.9,0.1,1.4,0.1c0.8,0,1.4,0.4,2,0.9c0.8,0.8,1.3,1.7,1.8,2.7c1.1,0,2.3,0,3.4,0c-0.7-1.5-1.6-2.7-3-3.6c0.1,0,0.2,0,0.2,0
	c0.7,0,1.3-0.1,2-0.1c0.9-0.1,1.7-0.4,2.4-0.9c1.1-0.7,1.5-1.9,1.2-3c-0.3-1.2-1.5-2.1-2.8-2.1c-2-0.1-4-0.1-6-0.1
	c-0.2,0-0.4,0-0.6-0.1c-0.3-0.1-0.5-0.4-0.5-0.7c0-0.4,0.2-0.6,0.5-0.7C5.6,16.1,5.8,16,6,16c2.2,0,4.4-0.1,6.6-0.1
	c0.1,0,0.3,0,0.3,0c0-1.1,0-2.5,0-3.6c1.2,0,2.3,0,3.4,0c0,4,0,8.6,0,12.6c1.6,0,1.5,0,3.1,0c0-4,0-8.6,0-12.6c3.3,0,7.9,0,11.1,0
	c0,0.6,0,1.1,0,1.7c-0.2,0-0.2,0-0.2,0c-0.8,0-1.5,0.1-2.3,0.1s-1.6,0.1-2.4,0.1c-0.8,0.1-1.6,0.3-2.2,0.8c-0.6,0.4-0.9,0.9-1,1.6
	c-0.1,1.1,0.5,1.9,1.5,2.4c0.8,0.4,1.7,0.5,2.6,0.6c0.9,0,1.8,0,2.7,0c0.6,0,1.2,0,1.9,0.1c0.4,0,0.8,0.1,1.1,0.3
	c0.3,0.2,0.4,0.4,0.3,0.8c-0.1,0.3-0.4,0.5-0.7,0.7c-0.8,0.4-1.6,0.5-2.4,0.6c-1.2,0-2.5-0.1-3.6-0.4c-0.8-0.2-1.5-0.5-2-1.1l0,0
	c-0.8,0.5-1.6,1-2.4,1.5c0.3,0.4,1,0.9,1.6,1.2c1,0.5,2.2,0.7,3.3,0.8c1.8,0.1,3.5,0.2,5.3-0.1c1-0.1,1.9-0.3,2.7-0.8
	c0.9-0.5,1.5-1.2,1.7-2.2c0.1-1.1-0.2-2.1-1.4-2.7c-0.3-0.2-0.7-0.3-1-0.4c-1-0.2-2-0.2-2.9-0.2s-1.9,0.1-2.8,0.1
	c-0.5,0-1,0-1.5-0.2c-0.3-0.2-0.5-0.4-0.4-0.7c0-0.3,0.2-0.6,0.5-0.6c0.3-0.1,0.6-0.2,0.9-0.2c2.1,0,4.1-0.1,6.2-0.1
	c0.1,0,0.2,0,0.2,0c0-1.1,0-2.5,0-3.6c0.2,0,0.2,0,0.3,0c1.4,0,2.7,0.1,4.1,0c0.5,0,0.8,0.2,1.1,0.5l0,0c0.4,0.4,0.5,0.9,0.5,1.5
	c-0.1,0.6-0.5,1-1.1,1.2c-0.7,0.2-1.5,0.2-2.3,0.1c-0.3,0-0.6-0.1-1-0.1c0,0.1,0,0.1,0,0.1c0.1,0.7,0.3,1.4,0.5,2.1
	c0.5,1.3,1.2,2.3,2.4,3c1.1,0.6,2.3,0.8,3.5,0.8c1.3,0,2.7-0.4,3.9-0.9c0.1-0.1,0.1-0.1,0.5-0.2c0,0.8,0,1.5,0,2.3c1,0,2.2,0,3.3,0
	c0-3.3,0-7,0-10.5c0.9,0,1.8,0,2.8,0c0,3.4,0,7.1,0,10.5c1.1,0,1.9,0,3.1,0c0-3.3,0-7,0-10.5c0.4,0,4.6,0,6.1,0l1.2-2.3
	c0.1,0,0.1-0.1,0.1-0.1c1.6-3,3.2-6,4.7-9c0.1-0.2,0.2-0.4,0.3-0.7C66.9,0.1,65.8,0.1,64.7,0.1z M20.9,9.8h-1.3c0-2.5,0-4.5,0-6.7
	c0.3,0,0.5,0,0.7,0.2c0.3,0.2,0.4,0.5,0.5,0.8c0.6,1.2,1.1,2.3,1.7,3.5c0.4,0.8,1,1.6,1.8,2c0.2,0.1,0.4,0.2,0.6,0.3
	C23.6,9.8,22.3,9.8,20.9,9.8z M39,7.7c-0.2,0-0.3,0-0.5,0c-1.6,0-3.2-0.1-4.8-0.1h-0.1c0-1.5,0-3.4,0-4.9h0.1c1.6,0,3.3-0.1,4.9,0
	c0.3,0,0.5,0,0.8,0.1c0.5,0.2,0.9,0.6,0.9,1.1c0,0.3,0,0.5,0,0.8c0,0.6,0,1.2,0,1.8C40.2,7.1,39.7,7.6,39,7.7z M46.1,17.3
	c0,0.1-0.1,0.2-0.1,0.2c-0.7,0.9-1.6,1.5-2.7,1.8c-0.9,0.2-1.8,0.2-2.7-0.2c-0.6-0.3-1-0.7-1.3-1.3c0,0,0,0,0-0.1
	c0.4,0,0.8-0.1,1.1-0.1c0.5-0.1,1-0.2,1.5-0.5c0.8-0.5,1.2-1.2,1.3-2.2s-0.3-2.1-0.9-2.7c1.3,0,2.5,0,4,0c0,0,0,0.2,0,0.3
	C46.2,14.1,46.1,15.7,46.1,17.3z M47.7,9.8h-6.9c0.6-0.2,1.2-0.6,1.6-1.1C43,8,43.2,7.2,43.3,6.3c0.1-0.7,0-1.4,0-2
	c0-0.3,0-0.5-0.1-0.8c0-0.3-0.1-0.6-0.2-0.9c1.5,0,3.1,0,4.6,0C47.7,5,47.7,7.2,47.7,9.8z M51.7,9.8c-0.1,0-0.2,0-0.3,0h-0.7
	c0-2.6,0-4.8,0-7.1c0.1,0,0.2,0,0.3,0c1.3,0,2.6-0.1,3.8-0.1c0.1,0,0.2,0,0.3,0.1c1.3,2.4,2.7,4.7,4,7.1C56.3,9.8,53.1,9.8,51.7,9.8
	z"/>
<circle class="st2" cx="30" cy="5.1" r="1.5"/>
</svg>
