<svg height="234.888088" viewBox="0 0 16.235001 9.1370001" width="425.734659" xmlns="http://www.w3.org/2000/svg" xmlns:xlink="http://www.w3.org/1999/xlink"><clipPath id="a"><path d="m0 0h1187.72v791.717h-1187.72z"/></clipPath><clipPath id="b"><path d="m0 0h1187.72v791.717h-1187.72z"/></clipPath><clipPath id="c"><path d="m0 0h1187.72v791.717h-1187.72z"/></clipPath><clipPath id="d"><path d="m0 0h1187.72v791.717h-1187.72z"/></clipPath><clipPath id="e"><path d="m0 0h1187.72v791.717h-1187.72z"/></clipPath><clipPath id="f"><path d="m0 0h1187.72v791.717h-1187.72z"/></clipPath><clipPath id="g"><path d="m0 0h1187.72v791.717h-1187.72z"/></clipPath><clipPath id="h"><path d="m0 0h1187.72v791.717h-1187.72z"/></clipPath><g transform="translate(11.897391 -2.23567)"><path d="m-11.890127 2.2416254h16.2207303v9.1238916h-16.2207303z" fill="#f9ee2f" stroke="#fff" stroke-miterlimit="22.926" stroke-width=".007761"/><g clip-path="url(#a)" transform="matrix(.35277777 0 0 -.35277777 -265.07979 206.23783)"><path d="m0 0c-.253-.825-.653-1.414-1.196-1.767-.543-.352-1.292-.529-2.244-.529-.985 0-1.637.173-1.953.521-.317.345-.346.938-.088 1.775l1.194 3.878h1.823l-1.237-4.013c-.196-.637.016-.952.634-.952.607 0 1.009.315 1.204.952l1.237 4.013h1.822z" fill="#100f0d" transform="translate(726.46 569.403)"/></g><g fill="#100f0d"><path d="m0 0h-1.644l1.882 6.11h1.645z" transform="matrix(.35277777 0 0 -.35277777 -8.238518 6.118299)"/><g clip-path="url(#b)" transform="matrix(.35277777 0 0 -.35277777 -265.07979 206.23783)"><path d="m0 0c-.441-.045-.816-.069-1.127-.069-.542 0-.883.071-1.023.212-.166.164-.169.503-.012 1.016l.715 2.319h-.741l.343 1.113h.741l.428 1.386h1.643l-.426-1.386h.841l-.343-1.113h-.841l-.623-2.023c-.051-.164-.054-.274-.01-.331.043-.056.156-.083.339-.083.14 0 .281.008.424.024z" transform="translate(731.667 567.256)"/><path d="m0 0c-.221.055-.437.081-.645.081-.355 0-.662-.09-.921-.27-.278-.186-.472-.452-.578-.799l-.654-2.122h-1.644l1.41 4.578h1.644l-.251-.819h.016c.527.622 1.082.931 1.664.931.131 0 .276-.011.436-.033z" transform="translate(736.561 570.379)"/><path d="m0 0 .151.488c-.151-.056-.554-.126-1.211-.211-.344-.072-.562-.26-.655-.563-.11-.356.038-.531.443-.531.681 0 1.105.272 1.272.817m1.307-1.702c.006 0-.246-.005-.752-.018-.506-.012-.785-.016-.834-.016-.099.094-.127.228-.086.395l.033.135h-.016c-.453-.429-1.069-.644-1.849-.644-1.14 0-1.563.476-1.27 1.425.258.837.924 1.313 1.999 1.425.875.096 1.309.139 1.302.135.209.028.359.074.451.138.092.066.163.176.211.333.088.286-.101.431-.569.431-.512 0-.845-.198-1.001-.598h-1.562c.223.564.548.965.973 1.205.426.24 1.071.36 1.936.36.84 0 1.392-.132 1.655-.397.23-.241.263-.63.099-1.161l-.75-2.433c-.057-.185-.061-.316-.009-.395.042-.023.06-.039.057-.052 0-.033-.002-.078-.01-.134-.005-.056-.008-.101-.008-.134" transform="translate(739.363 568.972)"/></g><path d="m0 0h-1.704l-1.44-4.675h-1.823l1.441 4.675h-1.709l.413 1.338h5.234z" transform="matrix(.35277777 0 0 -.35277777 -1.747059 4.469064)"/><g clip-path="url(#c)" transform="matrix(.35277777 0 0 -.35277777 -265.07979 206.23783)"><path d="m0 0c.079.257.078.469-.004.632-.097.191-.294.287-.593.287-.552 0-.943-.306-1.169-.919zm1.346-.903h-3.391c-.24-.743-.059-1.114.545-1.114.464 0 .797.221.999.661h1.668c-.193-.479-.526-.862-1.002-1.148-.53-.318-1.174-.479-1.93-.479-1.733 0-2.345.821-1.84 2.46.23.747.601 1.323 1.112 1.727.563.443 1.271.666 2.122.666.913 0 1.504-.228 1.774-.68.258-.437.239-1.136-.057-2.093" transform="translate(748.288 570.106)"/><path d="m0 0c-.488-1.365-1.535-2.047-3.144-2.047-1.716 0-2.322.811-1.822 2.435.496 1.612 1.606 2.417 3.324 2.417.846 0 1.416-.149 1.712-.449.295-.301.361-.785.2-1.453h-1.646c.168.548-.019.823-.562.823-.35 0-.627-.111-.833-.33-.188-.195-.353-.526-.498-.993-.149-.482-.183-.826-.105-1.031.077-.206.275-.307.592-.307.515 0 .896.312 1.144.935z" transform="translate(755.043 569.17)"/><path d="m0 0h-1.644l.86 2.791c.135.438-.001.658-.408.658-.233 0-.44-.078-.625-.231-.185-.155-.315-.351-.387-.586l-.81-2.632h-1.647l1.884 6.109h1.645l-.647-2.096h.008c.394.452.966.678 1.718.678.424 0 .736-.109.933-.329.231-.254.275-.617.128-1.088z" transform="translate(759.493 567.268)"/></g><path d="m0 0-.744-2.289h-.332l.744 2.289h-.757l.087.267h1.845l-.087-.267z" transform="matrix(.35277777 0 0 -.35277777 -10.435269 8.587393)"/><g clip-path="url(#d)" transform="matrix(.35277777 0 0 -.35277777 -265.07979 206.23783)"><path d="m0 0 .831 2.556h.292l-.324-.997c.113.129.232.227.356.291s.254.095.391.095c.211 0 .351-.063.419-.189s.062-.313-.017-.557l-.39-1.199h-.286l.398 1.225c.05.155.053.275.01.36-.043.084-.13.127-.261.127-.163 0-.32-.064-.469-.19-.149-.125-.255-.283-.317-.473l-.341-1.049z" transform="translate(722.29 557.981)"/><path d="m0 0h1.122c.05.181.044.322-.018.424s-.174.153-.336.153c-.163 0-.31-.049-.442-.148s-.241-.242-.326-.429m1.212-.625c-.129-.183-.282-.322-.459-.419-.176-.096-.368-.143-.575-.143-.272 0-.458.089-.561.271-.102.181-.104.424-.005.729.097.298.257.539.481.723.223.184.468.276.735.276.269 0 .455-.088.556-.264.101-.175.103-.413.005-.714l-.013-.041h-1.448l-.003-.011c-.074-.228-.08-.407-.017-.536.064-.13.187-.194.371-.194.124 0 .244.032.36.096.115.065.218.156.307.274z" transform="translate(725.142 559.114)"/></g><path d="m0 0 .83 2.556h1.702l-.083-.256h-1.381l-.269-.828h1.089l-.08-.247h-1.089l-.311-.958h1.415l-.087-.267z" transform="matrix(.35277777 0 0 -.35277777 -8.170788 9.394547)"/><g clip-path="url(#e)" transform="matrix(.35277777 0 0 -.35277777 -265.07979 206.23783)"><path d="m0 0 .616 1.896h.273l-.113-.35c.124.136.249.236.376.302.126.066.257.097.394.097.211 0 .351-.063.419-.189s.063-.313-.017-.557l-.389-1.199h-.287l.398 1.225c.05.155.054.275.01.36-.043.084-.13.127-.261.127-.163 0-.32-.064-.469-.19-.149-.125-.255-.283-.317-.473l-.341-1.049z" transform="translate(730.53 557.981)"/><path d="m0 0c-.132 0-.252-.039-.359-.118s-.181-.181-.222-.308c-.042-.128-.035-.231.021-.308.056-.078.151-.116.284-.116.134 0 .255.038.361.116.106.077.18.18.222.308.041.127.033.229-.023.308s-.151.118-.284.118m-.933-1.635c-.085-.032-.151-.069-.199-.111-.047-.041-.08-.091-.099-.15-.035-.107-.005-.186.09-.238.096-.054.256-.079.482-.079.213 0 .382.025.508.076.127.051.206.124.237.221.026.08.011.14-.046.178-.057.039-.164.062-.323.071zm.154.719c-.068.058-.111.126-.13.206-.02.081-.013.171.019.27.061.187.181.343.363.469.18.126.376.189.586.189.078 0 .149-.008.215-.025.064-.017.125-.043.18-.078.053.108.124.189.213.244.09.055.196.083.32.083.021 0 .057-.002.108-.006.006-.001.01-.002.012-.002l-.068-.211h-.101c-.088 0-.163-.018-.224-.054-.062-.037-.112-.091-.148-.164.038-.07.059-.142.065-.214.006-.073-.004-.147-.029-.224-.061-.187-.179-.339-.354-.453-.174-.114-.377-.171-.606-.171-.054 0-.104.003-.15.011s-.09.02-.13.035c-.074-.018-.134-.043-.179-.074-.045-.03-.075-.067-.088-.108-.02-.062-.013-.11.02-.145.034-.035.092-.054.175-.058l.594-.028c.212-.011.362-.056.448-.134.086-.08.107-.191.06-.333-.055-.172-.184-.302-.385-.395-.202-.093-.461-.139-.777-.139-.297 0-.511.042-.643.128s-.173.207-.122.364c.03.092.084.172.163.239s.175.115.288.143c-.061.036-.101.078-.119.128-.019.049-.017.108.006.177.024.077.071.141.14.195.069.055.161.1.278.135" transform="translate(734.106 559.697)"/></g><path d="m0 0 .091.278h.292l-.091-.278zm-.74-2.277.617 1.896h.291l-.616-1.896z" transform="matrix(.35277777 0 0 -.35277777 -5.543298 8.591272)"/><g clip-path="url(#f)" transform="matrix(.35277777 0 0 -.35277777 -265.07979 206.23783)"><path d="m0 0 .616 1.896h.273l-.114-.35c.125.136.25.236.376.302.127.066.258.097.395.097.211 0 .351-.063.419-.189s.062-.313-.017-.557l-.39-1.199h-.286l.398 1.225c.05.155.054.275.01.36-.043.084-.13.127-.261.127-.164 0-.32-.064-.469-.19-.15-.125-.255-.283-.318-.473l-.34-1.049z" transform="translate(736.021 557.981)"/><path d="m0 0h1.123c.05.181.044.322-.017.424-.063.102-.175.153-.338.153-.162 0-.31-.049-.441-.148-.132-.099-.241-.242-.327-.429m1.213-.625c-.129-.183-.281-.322-.458-.419-.177-.096-.37-.143-.576-.143-.271 0-.458.089-.561.271-.102.181-.104.424-.005.729.097.298.257.539.481.723.223.184.468.276.734.276.27 0 .456-.088.557-.264.101-.175.103-.413.005-.714l-.013-.041h-1.448l-.004-.011c-.073-.228-.079-.407-.015-.536.063-.13.186-.194.37-.194.124 0 .244.032.36.096.116.065.218.156.307.274z" transform="translate(738.872 559.114)"/><path d="m0 0h1.123c.049.181.043.322-.018.424-.062.102-.175.153-.338.153-.162 0-.31-.049-.441-.148s-.24-.242-.326-.429m1.212-.625c-.129-.183-.281-.322-.459-.419-.176-.096-.368-.143-.575-.143-.271 0-.458.089-.561.271-.102.181-.104.424-.005.729.097.298.257.539.481.723s.469.276.734.276c.27 0 .456-.088.557-.264.101-.175.103-.413.005-.714l-.013-.041h-1.447l-.004-.011c-.074-.228-.08-.407-.016-.536.063-.13.186-.194.37-.194.124 0 .243.032.36.096.116.065.218.156.307.274z" transform="translate(741.117 559.114)"/><path d="m0 0 .616 1.896h.283l-.139-.428c.112.162.229.282.349.359.121.079.248.118.384.118.021 0 .053-.002.095-.005.004-.001.008-.002.01-.002l-.092-.282h-.049c-.19 0-.362-.063-.515-.189-.153-.127-.265-.3-.336-.519l-.308-.948z" transform="translate(742.81 557.981)"/></g><path d="m0 0-.325-.996h.223l.325.996z" transform="matrix(.35277777 0 0 -.35277777 -2.271288 8.485439)"/><g clip-path="url(#g)" transform="matrix(.35277777 0 0 -.35277777 -265.07979 206.23783)"><path d="m0 0 .286.052c.003-.115.043-.205.122-.269.078-.065.186-.096.324-.096.135 0 .253.029.355.089.101.059.168.136.199.232.046.141-.078.244-.369.315-.041.009-.072.017-.094.023-.224.055-.367.123-.433.203s-.075.191-.028.336c.054.165.164.301.331.408.167.106.355.159.566.159.184 0 .324-.04.421-.123.097-.082.145-.2.144-.355l-.293-.056c.001.099-.029.174-.09.224-.061.051-.151.076-.27.076-.124 0-.232-.027-.321-.08-.089-.054-.149-.127-.179-.22-.043-.132.07-.231.34-.292.069-.017.122-.031.159-.04.202-.052.336-.12.403-.205.068-.086.08-.198.034-.338-.056-.173-.173-.314-.35-.425-.177-.11-.378-.166-.603-.166-.216 0-.382.048-.497.144-.114.096-.167.23-.157.404" transform="translate(744.991 558.474)"/><path d="m0 0c.022.198-.008.351-.088.457s-.207.159-.38.159c-.229 0-.443-.096-.639-.286s-.348-.45-.455-.779c-.107-.331-.125-.592-.053-.782.072-.189.223-.284.453-.284.173 0 .333.053.482.159.149.105.283.261.403.468l.277-.062c-.152-.272-.335-.479-.547-.619-.213-.143-.447-.212-.702-.212-.34 0-.569.119-.689.355-.12.239-.113.564.022.977.069.215.162.408.279.58.117.171.256.318.42.444.127.1.263.174.405.226.143.051.286.077.428.077.256 0 .443-.069.562-.207.12-.139.168-.343.144-.612z" transform="translate(750.583 559.713)"/><path d="m0 0 .831 2.556h.292l-.324-.997c.114.129.232.227.356.291s.254.095.391.095c.212 0 .351-.063.419-.189s.063-.313-.017-.557l-.389-1.199h-.287l.399 1.225c.049.155.053.275.01.36-.044.084-.131.127-.262.127-.163 0-.319-.064-.469-.19-.149-.125-.255-.283-.317-.473l-.341-1.049z" transform="translate(750.923 557.981)"/><path d="m0 0c.174 0 .335.068.484.207.148.138.261.325.337.558.077.237.085.424.027.561-.059.137-.176.205-.35.205-.178 0-.339-.068-.484-.204-.145-.137-.256-.324-.334-.562-.076-.237-.086-.423-.029-.56.058-.138.174-.205.349-.205m-.075-.235c-.268 0-.453.092-.556.275-.104.183-.107.425-.009.725.098.302.258.545.48.727.223.182.467.273.734.273.27 0 .458-.091.562-.274.106-.182.109-.425.011-.726-.097-.3-.259-.542-.483-.725-.225-.183-.471-.275-.739-.275" transform="translate(754.027 558.161)"/></g><path d="m0 0 .09.278h.293l-.091-.278zm-.74-2.277.616 1.896h.292l-.616-1.896z" transform="matrix(.35277777 0 0 -.35277777 1.702052 8.591272)"/><g clip-path="url(#h)" transform="matrix(.35277777 0 0 -.35277777 -265.07979 206.23783)"><path d="m0 0c.029.146.015.262-.042.349-.056.087-.145.132-.266.132-.161 0-.313-.071-.457-.208-.145-.14-.254-.326-.33-.557-.075-.23-.086-.415-.034-.551.053-.138.159-.206.32-.206.122 0 .239.041.35.122s.205.195.283.342l.254-.049c-.107-.209-.246-.372-.416-.487-.171-.114-.358-.173-.561-.173-.255 0-.429.091-.523.273s-.093.424.006.727c.098.302.258.544.48.726.222.183.467.274.734.274.192 0 .332-.059.419-.178.087-.119.113-.283.078-.494z" transform="translate(758.139 559.212)"/><path d="m0 0h1.124c.049.181.043.322-.019.424s-.174.153-.337.153c-.162 0-.31-.049-.441-.148-.132-.099-.241-.242-.327-.429m1.213-.625c-.129-.183-.282-.322-.459-.419-.177-.096-.369-.143-.575-.143-.271 0-.458.089-.56.271-.103.181-.105.424-.006.729.097.298.257.539.481.723.223.184.468.276.734.276.27 0 .456-.088.558-.264.1-.175.102-.413.005-.714l-.014-.041h-1.448l-.003-.011c-.075-.228-.08-.407-.017-.536.064-.13.187-.194.371-.194.124 0 .244.032.36.096.115.065.218.156.307.274z" transform="translate(759.185 559.114)"/><path d="m0 0h-.649l-.533-1.6h-.888l.532 1.599-.653-.001.187.561 2.191.001zm-6.895-1.603h-.981l-.192 1.222-.408-1.222-.836-.003.719 2.162h1.01l.161-1.204h.01l.4 1.204.837.001zm-6.15 1.617-1.165-.001-.089-.267 1.088.001-.178-.534h-1.088l-.094-.283 1.175.001-.179-.538-2.063-.002.719 2.161 2.053.001zm-6.952-1.626h-.819l.522 1.567-.872-1.567-.656-.001.176 1.567-.522-1.567h-.82l.72 2.16 1.267.001-.19-1.236h.007l.653 1.236 1.254.001zm-6.718 1.618-1.165-.001-.088-.267 1.087.001-.177-.534-1.087-.001-.095-.282h1.175l-.179-.538-2.064-.001.72 2.16 2.053.001zm-6.418-.315h-.957c.044.144.063.242.058.295-.01.083-.072.124-.184.124-.123 0-.219-.037-.288-.11-.087-.091-.174-.27-.263-.538-.091-.271-.125-.454-.102-.547.016-.071.079-.106.188-.106.091 0 .168.029.229.084.068.066.141.186.217.361h.957c-.144-.337-.315-.572-.514-.705-.233-.156-.575-.234-1.027-.235-.411 0-.689.069-.833.205-.188.176-.206.49-.055.942.148.445.375.756.68.933.239.141.563.211.973.211.38.001.646-.067.799-.202.164-.145.205-.384.122-.712m35.643 1.417h-39.598l-.878-2.704c-.315-.63-.803-.643-.834-.643h40.224l.804 2.48c.014.013.045.069.102.188.313.662.815.676.849.677h-.67z" transform="translate(758.503 565.217)"/></g></g></g></svg>